<mxfile host="app.diagrams.net" modified="2023-02-17T05:12:09.362Z" agent="5.0 (Windows NT 10.0; Win64; x64) AppleWebKit/537.36 (KHTML, like Gecko) Chrome/110.0.0.0 Safari/537.36" etag="v0lBdndVepamVTg35X1T" version="20.8.18" type="github">
  <diagram name="페이지-1" id="MVJDvATkGW8zEX_f-2kB">
    <mxGraphModel dx="1247" dy="692" grid="0" gridSize="10" guides="1" tooltips="1" connect="1" arrows="1" fold="1" page="0" pageScale="1" pageWidth="827" pageHeight="1169" math="0" shadow="0">
      <root>
        <mxCell id="0" />
        <mxCell id="1" parent="0" />
        <mxCell id="kY-Q2bcZrQWXMMMVcbzc-1" value="CASE 1" style="rounded=0;whiteSpace=wrap;html=1;" vertex="1" parent="1">
          <mxGeometry x="80" y="40" width="120" height="30" as="geometry" />
        </mxCell>
        <mxCell id="kY-Q2bcZrQWXMMMVcbzc-2" value="1. 0번째 1은 고정" style="text;html=1;strokeColor=none;fillColor=none;align=left;verticalAlign=top;whiteSpace=wrap;rounded=0;" vertex="1" parent="1">
          <mxGeometry x="19" y="160" width="140" height="30" as="geometry" />
        </mxCell>
        <mxCell id="kY-Q2bcZrQWXMMMVcbzc-3" value="" style="endArrow=none;dashed=1;html=1;dashPattern=1 3;strokeWidth=2;rounded=0;" edge="1" parent="1">
          <mxGeometry width="50" height="50" relative="1" as="geometry">
            <mxPoint x="9" y="200" as="sourcePoint" />
            <mxPoint x="280" y="200" as="targetPoint" />
          </mxGeometry>
        </mxCell>
        <mxCell id="kY-Q2bcZrQWXMMMVcbzc-4" value="2. output [ 1 ] = output [ 1-1 ] + nums [ 1 ];&lt;br&gt;&amp;nbsp; &amp;nbsp;&amp;nbsp;&lt;br&gt;&amp;nbsp; &amp;nbsp; output [ 1 ] = 1 + 2;" style="text;html=1;strokeColor=none;fillColor=none;align=left;verticalAlign=top;whiteSpace=wrap;rounded=0;" vertex="1" parent="1">
          <mxGeometry x="19" y="220" width="251" height="50" as="geometry" />
        </mxCell>
        <mxCell id="kY-Q2bcZrQWXMMMVcbzc-5" value="3. output [ 2 ] = output [ 2-1 ] + nums [ 2 ];&lt;br&gt;&amp;nbsp; &amp;nbsp;&amp;nbsp;&lt;br&gt;&amp;nbsp; &amp;nbsp; output [ 2 ] = 3 + 3;" style="text;html=1;strokeColor=none;fillColor=none;align=left;verticalAlign=top;whiteSpace=wrap;rounded=0;" vertex="1" parent="1">
          <mxGeometry x="19" y="290" width="251" height="50" as="geometry" />
        </mxCell>
        <mxCell id="kY-Q2bcZrQWXMMMVcbzc-6" value="Input&amp;nbsp; &amp;nbsp; : nums = [ 1,2,3,4 ]&lt;br&gt;Output : [ 1,3,6,10 ]" style="text;html=1;strokeColor=none;fillColor=#f5f5f5;align=left;verticalAlign=top;whiteSpace=wrap;rounded=0;fontColor=#333333;" vertex="1" parent="1">
          <mxGeometry x="64.5" y="90" width="151" height="40" as="geometry" />
        </mxCell>
        <mxCell id="kY-Q2bcZrQWXMMMVcbzc-7" value="4. output [ 3 ] = output [ 3-1 ] + nums [ 3 ];&lt;br&gt;&amp;nbsp; &amp;nbsp;&amp;nbsp;&lt;br&gt;&amp;nbsp; &amp;nbsp; output [ 3 ] = 6 + 4;" style="text;html=1;strokeColor=none;fillColor=none;align=left;verticalAlign=top;whiteSpace=wrap;rounded=0;" vertex="1" parent="1">
          <mxGeometry x="19" y="360" width="251" height="50" as="geometry" />
        </mxCell>
        <mxCell id="kY-Q2bcZrQWXMMMVcbzc-8" value="" style="endArrow=none;dashed=1;html=1;dashPattern=1 3;strokeWidth=2;rounded=0;" edge="1" parent="1">
          <mxGeometry width="50" height="50" relative="1" as="geometry">
            <mxPoint x="9" y="430" as="sourcePoint" />
            <mxPoint x="280" y="430" as="targetPoint" />
          </mxGeometry>
        </mxCell>
        <mxCell id="kY-Q2bcZrQWXMMMVcbzc-9" value="5. 4&amp;lt; nums.length 이기 때문에 중지&lt;br&gt;&lt;br&gt;&amp;nbsp; &amp;nbsp; return output;" style="text;html=1;strokeColor=none;fillColor=none;align=left;verticalAlign=top;whiteSpace=wrap;rounded=0;" vertex="1" parent="1">
          <mxGeometry x="19" y="450" width="251" height="50" as="geometry" />
        </mxCell>
        <mxCell id="kY-Q2bcZrQWXMMMVcbzc-10" value="CASE 2" style="rounded=0;whiteSpace=wrap;html=1;" vertex="1" parent="1">
          <mxGeometry x="421" y="40" width="120" height="30" as="geometry" />
        </mxCell>
        <mxCell id="kY-Q2bcZrQWXMMMVcbzc-11" value="1. 0번째 1은 고정" style="text;html=1;strokeColor=none;fillColor=none;align=left;verticalAlign=top;whiteSpace=wrap;rounded=0;" vertex="1" parent="1">
          <mxGeometry x="360" y="160" width="140" height="30" as="geometry" />
        </mxCell>
        <mxCell id="kY-Q2bcZrQWXMMMVcbzc-12" value="" style="endArrow=none;dashed=1;html=1;dashPattern=1 3;strokeWidth=2;rounded=0;" edge="1" parent="1">
          <mxGeometry width="50" height="50" relative="1" as="geometry">
            <mxPoint x="350" y="200" as="sourcePoint" />
            <mxPoint x="621" y="200" as="targetPoint" />
          </mxGeometry>
        </mxCell>
        <mxCell id="kY-Q2bcZrQWXMMMVcbzc-13" value="2. output [ 1 ] = output [ 1-1 ] + nums [ 1 ];&lt;br&gt;&amp;nbsp; &amp;nbsp;&amp;nbsp;&lt;br&gt;&amp;nbsp; &amp;nbsp; output [ 1 ] = 1 + 1;" style="text;html=1;strokeColor=none;fillColor=none;align=left;verticalAlign=top;whiteSpace=wrap;rounded=0;" vertex="1" parent="1">
          <mxGeometry x="360" y="220" width="251" height="50" as="geometry" />
        </mxCell>
        <mxCell id="kY-Q2bcZrQWXMMMVcbzc-14" value="3. output [ 2 ] = output [ 2-1 ] + nums [ 2 ];&lt;br&gt;&amp;nbsp; &amp;nbsp;&amp;nbsp;&lt;br&gt;&amp;nbsp; &amp;nbsp; output [ 2 ] = 2 + 1;" style="text;html=1;strokeColor=none;fillColor=none;align=left;verticalAlign=top;whiteSpace=wrap;rounded=0;" vertex="1" parent="1">
          <mxGeometry x="360" y="290" width="251" height="50" as="geometry" />
        </mxCell>
        <mxCell id="kY-Q2bcZrQWXMMMVcbzc-15" value="Input&amp;nbsp; &amp;nbsp; : nums = [ 1,1,1,1,1 ]&lt;br&gt;Output : [ 1,2,3,4,5 ]" style="text;html=1;strokeColor=none;fillColor=#f5f5f5;align=left;verticalAlign=top;whiteSpace=wrap;rounded=0;fontColor=#333333;" vertex="1" parent="1">
          <mxGeometry x="399" y="90" width="164.5" height="40" as="geometry" />
        </mxCell>
        <mxCell id="kY-Q2bcZrQWXMMMVcbzc-16" value="4. output [ 3 ] = output [ 3-1 ] + nums [ 3 ];&lt;br&gt;&amp;nbsp; &amp;nbsp;&amp;nbsp;&lt;br&gt;&amp;nbsp; &amp;nbsp; output [ 3 ] = 3 + 1;" style="text;html=1;strokeColor=none;fillColor=none;align=left;verticalAlign=top;whiteSpace=wrap;rounded=0;" vertex="1" parent="1">
          <mxGeometry x="360" y="360" width="251" height="50" as="geometry" />
        </mxCell>
        <mxCell id="kY-Q2bcZrQWXMMMVcbzc-17" value="" style="endArrow=none;dashed=1;html=1;dashPattern=1 3;strokeWidth=2;rounded=0;" edge="1" parent="1">
          <mxGeometry width="50" height="50" relative="1" as="geometry">
            <mxPoint x="350" y="530" as="sourcePoint" />
            <mxPoint x="621" y="530" as="targetPoint" />
          </mxGeometry>
        </mxCell>
        <mxCell id="kY-Q2bcZrQWXMMMVcbzc-18" value="5. 5&amp;lt; nums.length 이기 때문에 중지&lt;br&gt;&lt;br&gt;&amp;nbsp; &amp;nbsp; return output;" style="text;html=1;strokeColor=none;fillColor=none;align=left;verticalAlign=top;whiteSpace=wrap;rounded=0;" vertex="1" parent="1">
          <mxGeometry x="360" y="550" width="251" height="50" as="geometry" />
        </mxCell>
        <mxCell id="kY-Q2bcZrQWXMMMVcbzc-19" value="5. output [ 4 ] = output [ 4-1 ] + nums [ 4 ];&lt;br&gt;&amp;nbsp; &amp;nbsp;&amp;nbsp;&lt;br&gt;&amp;nbsp; &amp;nbsp; output [ 4 ] = 4 + 1;" style="text;html=1;strokeColor=none;fillColor=none;align=left;verticalAlign=top;whiteSpace=wrap;rounded=0;" vertex="1" parent="1">
          <mxGeometry x="360" y="434" width="251" height="50" as="geometry" />
        </mxCell>
        <mxCell id="kY-Q2bcZrQWXMMMVcbzc-21" value="6. output : [ 1,3,6,10 ]" style="text;html=1;strokeColor=none;fillColor=none;align=left;verticalAlign=top;whiteSpace=wrap;rounded=0;" vertex="1" parent="1">
          <mxGeometry x="19" y="543" width="251" height="50" as="geometry" />
        </mxCell>
        <mxCell id="kY-Q2bcZrQWXMMMVcbzc-23" value="" style="endArrow=none;dashed=1;html=1;dashPattern=1 3;strokeWidth=2;rounded=0;" edge="1" parent="1">
          <mxGeometry width="50" height="50" relative="1" as="geometry">
            <mxPoint x="9" y="530" as="sourcePoint" />
            <mxPoint x="280" y="530" as="targetPoint" />
          </mxGeometry>
        </mxCell>
        <mxCell id="kY-Q2bcZrQWXMMMVcbzc-24" value="" style="endArrow=none;dashed=1;html=1;dashPattern=1 3;strokeWidth=2;rounded=0;" edge="1" parent="1">
          <mxGeometry width="50" height="50" relative="1" as="geometry">
            <mxPoint x="350" y="619" as="sourcePoint" />
            <mxPoint x="621" y="619" as="targetPoint" />
          </mxGeometry>
        </mxCell>
        <mxCell id="kY-Q2bcZrQWXMMMVcbzc-25" value="6. output : [ 1,2,3,4,5 ]" style="text;html=1;strokeColor=none;fillColor=none;align=left;verticalAlign=top;whiteSpace=wrap;rounded=0;" vertex="1" parent="1">
          <mxGeometry x="360" y="638" width="251" height="50" as="geometry" />
        </mxCell>
        <mxCell id="kY-Q2bcZrQWXMMMVcbzc-26" value="CASE 3" style="rounded=0;whiteSpace=wrap;html=1;" vertex="1" parent="1">
          <mxGeometry x="755" y="40" width="120" height="30" as="geometry" />
        </mxCell>
        <mxCell id="kY-Q2bcZrQWXMMMVcbzc-27" value="1. 0번째 3은 고정" style="text;html=1;strokeColor=none;fillColor=none;align=left;verticalAlign=top;whiteSpace=wrap;rounded=0;" vertex="1" parent="1">
          <mxGeometry x="694" y="160" width="140" height="30" as="geometry" />
        </mxCell>
        <mxCell id="kY-Q2bcZrQWXMMMVcbzc-28" value="" style="endArrow=none;dashed=1;html=1;dashPattern=1 3;strokeWidth=2;rounded=0;" edge="1" parent="1">
          <mxGeometry width="50" height="50" relative="1" as="geometry">
            <mxPoint x="684" y="200" as="sourcePoint" />
            <mxPoint x="955" y="200" as="targetPoint" />
          </mxGeometry>
        </mxCell>
        <mxCell id="kY-Q2bcZrQWXMMMVcbzc-29" value="2. output [ 1 ] = output [ 1-1 ] + nums [ 1 ];&lt;br&gt;&amp;nbsp; &amp;nbsp;&amp;nbsp;&lt;br&gt;&amp;nbsp; &amp;nbsp; output [ 1 ] = 3 + 1;" style="text;html=1;strokeColor=none;fillColor=none;align=left;verticalAlign=top;whiteSpace=wrap;rounded=0;" vertex="1" parent="1">
          <mxGeometry x="694" y="220" width="251" height="50" as="geometry" />
        </mxCell>
        <mxCell id="kY-Q2bcZrQWXMMMVcbzc-30" value="3. output [ 2 ] = output [ 2-1 ] + nums [ 2 ];&lt;br&gt;&amp;nbsp; &amp;nbsp;&amp;nbsp;&lt;br&gt;&amp;nbsp; &amp;nbsp; output [ 2 ] = 4 + 2;" style="text;html=1;strokeColor=none;fillColor=none;align=left;verticalAlign=top;whiteSpace=wrap;rounded=0;" vertex="1" parent="1">
          <mxGeometry x="694" y="290" width="251" height="50" as="geometry" />
        </mxCell>
        <mxCell id="kY-Q2bcZrQWXMMMVcbzc-31" value="Input&amp;nbsp; &amp;nbsp; : nums = [ 3,1,2,10,1 ]&lt;br&gt;Output : [ 3,4,6,16,17 ]" style="text;html=1;strokeColor=none;fillColor=#f5f5f5;align=left;verticalAlign=top;whiteSpace=wrap;rounded=0;fontColor=#333333;" vertex="1" parent="1">
          <mxGeometry x="733" y="90" width="164.5" height="40" as="geometry" />
        </mxCell>
        <mxCell id="kY-Q2bcZrQWXMMMVcbzc-32" value="4. output [ 3 ] = output [ 3-1 ] + nums [ 3 ];&lt;br&gt;&amp;nbsp; &amp;nbsp;&amp;nbsp;&lt;br&gt;&amp;nbsp; &amp;nbsp; output [ 3 ] = 6 + 10;" style="text;html=1;strokeColor=none;fillColor=none;align=left;verticalAlign=top;whiteSpace=wrap;rounded=0;" vertex="1" parent="1">
          <mxGeometry x="694" y="360" width="251" height="50" as="geometry" />
        </mxCell>
        <mxCell id="kY-Q2bcZrQWXMMMVcbzc-33" value="" style="endArrow=none;dashed=1;html=1;dashPattern=1 3;strokeWidth=2;rounded=0;" edge="1" parent="1">
          <mxGeometry width="50" height="50" relative="1" as="geometry">
            <mxPoint x="684" y="530" as="sourcePoint" />
            <mxPoint x="955" y="530" as="targetPoint" />
          </mxGeometry>
        </mxCell>
        <mxCell id="kY-Q2bcZrQWXMMMVcbzc-34" value="5. 5&amp;lt; nums.length 이기 때문에 중지&lt;br&gt;&lt;br&gt;&amp;nbsp; &amp;nbsp; return output;" style="text;html=1;strokeColor=none;fillColor=none;align=left;verticalAlign=top;whiteSpace=wrap;rounded=0;" vertex="1" parent="1">
          <mxGeometry x="694" y="550" width="251" height="50" as="geometry" />
        </mxCell>
        <mxCell id="kY-Q2bcZrQWXMMMVcbzc-35" value="5. output [ 4 ] = output [ 4-1 ] + nums [ 4 ];&lt;br&gt;&amp;nbsp; &amp;nbsp;&amp;nbsp;&lt;br&gt;&amp;nbsp; &amp;nbsp; output [ 4 ] = 16 + 1;" style="text;html=1;strokeColor=none;fillColor=none;align=left;verticalAlign=top;whiteSpace=wrap;rounded=0;" vertex="1" parent="1">
          <mxGeometry x="694" y="434" width="251" height="50" as="geometry" />
        </mxCell>
        <mxCell id="kY-Q2bcZrQWXMMMVcbzc-36" value="" style="endArrow=none;dashed=1;html=1;dashPattern=1 3;strokeWidth=2;rounded=0;" edge="1" parent="1">
          <mxGeometry width="50" height="50" relative="1" as="geometry">
            <mxPoint x="684" y="619" as="sourcePoint" />
            <mxPoint x="955" y="619" as="targetPoint" />
          </mxGeometry>
        </mxCell>
        <mxCell id="kY-Q2bcZrQWXMMMVcbzc-37" value="6. output : [ 3,4,6,16,17 ]" style="text;html=1;strokeColor=none;fillColor=none;align=left;verticalAlign=top;whiteSpace=wrap;rounded=0;" vertex="1" parent="1">
          <mxGeometry x="694" y="638" width="251" height="50" as="geometry" />
        </mxCell>
      </root>
    </mxGraphModel>
  </diagram>
</mxfile>
